<svg id="Layer_1" data-name="Layer 1" xmlns="http://www.w3.org/2000/svg" viewBox="0 0 1802.57 1003.57"><defs><style>.cls-1{fill:#fff;stroke:#000;stroke-miterlimit:10;stroke-width:80px;opacity:0.04;}.cls-2{fill:#e6e6e6;opacity:0.5;}</style></defs><title>b</title><path class="cls-1" d="M1364.23,0c.21,109.94,89.39,199,199.38,199S1762.79,109.94,1763,0" transform="translate(-0.42 0.08)"/><path class="cls-1" d="M.5,963.49A127.25,127.25,0,0,0,.5,709" transform="translate(-0.42 0.08)"/><circle class="cls-2" cx="337.58" cy="260.08" r="6"/><circle class="cls-2" cx="358.58" cy="260.08" r="6"/><circle class="cls-2" cx="379.58" cy="260.08" r="6"/><circle class="cls-2" cx="400.58" cy="260.08" r="6"/><circle class="cls-2" cx="421.58" cy="260.08" r="6"/><circle class="cls-2" cx="442.58" cy="260.08" r="6"/><circle class="cls-2" cx="463.58" cy="260.08" r="6"/><circle class="cls-2" cx="484.58" cy="260.08" r="6"/><circle class="cls-2" cx="337.58" cy="280.08" r="6"/><circle class="cls-2" cx="358.58" cy="280.08" r="6"/><circle class="cls-2" cx="379.58" cy="280.08" r="6"/><circle class="cls-2" cx="400.58" cy="280.08" r="6"/><circle class="cls-2" cx="421.58" cy="280.08" r="6"/><circle class="cls-2" cx="442.58" cy="280.08" r="6"/><circle class="cls-2" cx="463.58" cy="280.08" r="6"/><circle class="cls-2" cx="484.58" cy="280.08" r="6"/><circle class="cls-2" cx="336.58" cy="300.08" r="6"/><circle class="cls-2" cx="357.58" cy="300.08" r="6"/><circle class="cls-2" cx="378.58" cy="300.08" r="6"/><circle class="cls-2" cx="399.58" cy="300.08" r="6"/><circle class="cls-2" cx="420.58" cy="300.08" r="6"/><circle class="cls-2" cx="441.58" cy="300.08" r="6"/><circle class="cls-2" cx="462.58" cy="300.08" r="6"/><circle class="cls-2" cx="483.58" cy="300.08" r="6"/><circle class="cls-2" cx="336.58" cy="320.08" r="6"/><circle class="cls-2" cx="357.58" cy="320.08" r="6"/><circle class="cls-2" cx="378.58" cy="320.08" r="6"/><circle class="cls-2" cx="399.58" cy="320.08" r="6"/><circle class="cls-2" cx="420.58" cy="320.08" r="6"/><circle class="cls-2" cx="441.58" cy="320.08" r="6"/><circle class="cls-2" cx="462.58" cy="320.08" r="6"/><circle class="cls-2" cx="483.58" cy="320.08" r="6"/><circle class="cls-2" cx="337.58" cy="340.08" r="6"/><circle class="cls-2" cx="358.58" cy="340.08" r="6"/><circle class="cls-2" cx="379.58" cy="340.08" r="6"/><circle class="cls-2" cx="400.58" cy="340.08" r="6"/><circle class="cls-2" cx="421.58" cy="340.08" r="6"/><circle class="cls-2" cx="442.58" cy="340.08" r="6"/><circle class="cls-2" cx="463.58" cy="340.08" r="6"/><circle class="cls-2" cx="484.58" cy="340.08" r="6"/><circle class="cls-2" cx="337.58" cy="360.08" r="6"/><circle class="cls-2" cx="358.58" cy="360.08" r="6"/><circle class="cls-2" cx="379.58" cy="360.08" r="6"/><circle class="cls-2" cx="400.58" cy="360.08" r="6"/><circle class="cls-2" cx="421.58" cy="360.08" r="6"/><circle class="cls-2" cx="442.58" cy="360.08" r="6"/><circle class="cls-2" cx="463.58" cy="360.08" r="6"/><circle class="cls-2" cx="484.58" cy="360.08" r="6"/><circle class="cls-2" cx="336.58" cy="380.08" r="6"/><circle class="cls-2" cx="357.58" cy="380.08" r="6"/><circle class="cls-2" cx="378.58" cy="380.08" r="6"/><circle class="cls-2" cx="399.58" cy="380.08" r="6"/><circle class="cls-2" cx="420.58" cy="380.08" r="6"/><circle class="cls-2" cx="441.58" cy="380.08" r="6"/><circle class="cls-2" cx="462.58" cy="380.08" r="6"/><circle class="cls-2" cx="483.58" cy="380.08" r="6"/><circle class="cls-2" cx="336.58" cy="400.08" r="6"/><circle class="cls-2" cx="357.58" cy="400.08" r="6"/><circle class="cls-2" cx="378.58" cy="400.08" r="6"/><circle class="cls-2" cx="399.58" cy="400.08" r="6"/><circle class="cls-2" cx="420.58" cy="400.08" r="6"/><circle class="cls-2" cx="441.58" cy="400.08" r="6"/><circle class="cls-2" cx="462.58" cy="400.08" r="6"/><circle class="cls-2" cx="483.58" cy="400.08" r="6"/><circle class="cls-2" cx="1570.58" cy="809.08" r="6"/><circle class="cls-2" cx="1591.58" cy="809.08" r="6"/><circle class="cls-2" cx="1612.58" cy="809.08" r="6"/><circle class="cls-2" cx="1633.58" cy="809.08" r="6"/><circle class="cls-2" cx="1654.58" cy="809.08" r="6"/><circle class="cls-2" cx="1675.58" cy="809.08" r="6"/><circle class="cls-2" cx="1696.58" cy="809.08" r="6"/><circle class="cls-2" cx="1717.58" cy="809.08" r="6"/><circle class="cls-2" cx="1570.58" cy="829.08" r="6"/><circle class="cls-2" cx="1591.58" cy="829.08" r="6"/><circle class="cls-2" cx="1612.58" cy="829.08" r="6"/><circle class="cls-2" cx="1633.58" cy="829.08" r="6"/><circle class="cls-2" cx="1654.58" cy="829.08" r="6"/><circle class="cls-2" cx="1675.58" cy="829.08" r="6"/><circle class="cls-2" cx="1696.58" cy="829.08" r="6"/><circle class="cls-2" cx="1717.58" cy="829.08" r="6"/><circle class="cls-2" cx="1569.58" cy="849.08" r="6"/><circle class="cls-2" cx="1590.58" cy="849.08" r="6"/><circle class="cls-2" cx="1611.58" cy="849.08" r="6"/><circle class="cls-2" cx="1632.58" cy="849.08" r="6"/><circle class="cls-2" cx="1653.58" cy="849.08" r="6"/><circle class="cls-2" cx="1674.58" cy="849.08" r="6"/><circle class="cls-2" cx="1695.58" cy="849.08" r="6"/><circle class="cls-2" cx="1716.58" cy="849.08" r="6"/><circle class="cls-2" cx="1569.58" cy="869.08" r="6"/><circle class="cls-2" cx="1590.58" cy="869.08" r="6"/><circle class="cls-2" cx="1611.58" cy="869.08" r="6"/><circle class="cls-2" cx="1632.58" cy="869.08" r="6"/><circle class="cls-2" cx="1653.58" cy="869.08" r="6"/><circle class="cls-2" cx="1674.58" cy="869.08" r="6"/><circle class="cls-2" cx="1695.58" cy="869.08" r="6"/><circle class="cls-2" cx="1716.58" cy="869.08" r="6"/><circle class="cls-2" cx="1570.58" cy="889.08" r="6"/><circle class="cls-2" cx="1591.58" cy="889.08" r="6"/><circle class="cls-2" cx="1612.58" cy="889.08" r="6"/><circle class="cls-2" cx="1633.58" cy="889.08" r="6"/><circle class="cls-2" cx="1654.58" cy="889.08" r="6"/><circle class="cls-2" cx="1675.58" cy="889.08" r="6"/><circle class="cls-2" cx="1696.58" cy="889.08" r="6"/><circle class="cls-2" cx="1717.58" cy="889.08" r="6"/><circle class="cls-2" cx="1570.58" cy="909.08" r="6"/><circle class="cls-2" cx="1591.58" cy="909.08" r="6"/><circle class="cls-2" cx="1612.58" cy="909.08" r="6"/><circle class="cls-2" cx="1633.58" cy="909.08" r="6"/><circle class="cls-2" cx="1654.58" cy="909.08" r="6"/><circle class="cls-2" cx="1675.58" cy="909.08" r="6"/><circle class="cls-2" cx="1696.58" cy="909.08" r="6"/><circle class="cls-2" cx="1717.58" cy="909.08" r="6"/><circle class="cls-2" cx="1569.58" cy="929.08" r="6"/><circle class="cls-2" cx="1590.58" cy="929.08" r="6"/><circle class="cls-2" cx="1611.58" cy="929.08" r="6"/><circle class="cls-2" cx="1632.58" cy="929.08" r="6"/><circle class="cls-2" cx="1653.58" cy="929.08" r="6"/><circle class="cls-2" cx="1674.58" cy="929.08" r="6"/><circle class="cls-2" cx="1695.58" cy="929.08" r="6"/><circle class="cls-2" cx="1716.58" cy="929.08" r="6"/><circle class="cls-2" cx="1569.58" cy="949.08" r="6"/><circle class="cls-2" cx="1590.58" cy="949.08" r="6"/><circle class="cls-2" cx="1611.58" cy="949.08" r="6"/><circle class="cls-2" cx="1632.58" cy="949.08" r="6"/><circle class="cls-2" cx="1653.58" cy="949.08" r="6"/><circle class="cls-2" cx="1674.58" cy="949.08" r="6"/><circle class="cls-2" cx="1695.58" cy="949.08" r="6"/><circle class="cls-2" cx="1716.58" cy="949.08" r="6"/></svg>